<?xml version="1.0" encoding="UTF-8" standalone="no"?><!DOCTYPE svg PUBLIC "-//W3C//DTD SVG 1.1//EN" "http://www.w3.org/Graphics/SVG/1.1/DTD/svg11.dtd"><svg width="100%" height="100%" viewBox="0 0 102 77" version="1.1" xmlns="http://www.w3.org/2000/svg" xmlns:xlink="http://www.w3.org/1999/xlink" xml:space="preserve" xmlns:serif="http://www.serif.com/" style="fill-rule:evenodd;clip-rule:evenodd;stroke-linejoin:round;stroke-miterlimit:2;"><path d="M101.175,76.17l-101.175,0l0,-76.17l101.25,0l-0.075,76.17Zm-98.25,-3l95.25,0l0,-70.185l-95.25,0l0,70.185Z" style="fill:#5d9bd4;fill-rule:nonzero;"/><path d="M14.813,35.37l-0,-19.882c-0.003,-0.021 -0.004,-0.042 -0.004,-0.063c-0,-0.297 0.244,-0.54 0.54,-0.54c0.019,-0 0.037,0 0.056,0.003l3.84,-0c0.021,-0.003 0.043,-0.004 0.064,-0.004c0.296,-0 0.54,0.244 0.54,0.54c-0,0.021 -0.002,0.043 -0.004,0.064l0,19.882c0.002,0.021 0.004,0.043 0.004,0.064c-0,0.296 -0.244,0.54 -0.54,0.54c-0.021,-0 -0.043,-0.002 -0.064,-0.004l-3.84,0c-0.019,0.002 -0.037,0.003 -0.056,0.003c-0.296,0 -0.54,-0.244 -0.54,-0.54c-0,-0.021 0.001,-0.042 0.004,-0.063Z" style="fill:#5d9bd4;fill-rule:nonzero;"/><path d="M47.46,35.37c0,0.48 -0.232,0.6 -0.622,0.6l-3.69,0c-0.021,0.002 -0.043,0.004 -0.064,0.004c-0.296,-0 -0.54,-0.244 -0.54,-0.54c-0,-0.021 0.001,-0.043 0.004,-0.064l-0,-10.26l-4.89,8.4c-0.137,0.283 -0.438,0.452 -0.75,0.42l-2.123,0c-0.313,0.032 -0.613,-0.137 -0.75,-0.42l-4.785,-8.445l0,10.283c0.002,0.021 0.004,0.042 0.004,0.063c-0,0.297 -0.244,0.54 -0.54,0.54c-0.021,0 -0.043,-0.001 -0.064,-0.003l-3.75,-0c-0.45,-0 -0.592,-0.18 -0.592,-0.6l0.502,-19.883c0,-0.36 0.21,-0.6 0.66,-0.6l2.01,0c0.313,-0.031 0.614,0.137 0.75,0.42l7.605,12.975l7.763,-12.945c0.136,-0.283 0.437,-0.451 0.75,-0.42l1.98,0c0.018,-0.001 0.035,-0.002 0.053,-0.002c0.329,-0 0.6,0.271 0.6,0.6c-0,0.01 -0,0.022 -0.001,0.032l0.48,19.845Z" style="fill:#5d9bd4;fill-rule:nonzero;"/><path d="M68.438,22.748c-0.001,4.499 -3.6,7.499 -9,7.552l-2.438,0.015l0,5.04c0.002,0.021 0.004,0.043 0.004,0.064c-0,0.296 -0.244,0.54 -0.54,0.54c-0.021,-0 -0.043,-0.002 -0.064,-0.004l-3.84,-0c-0.021,0.002 -0.043,0.004 -0.064,0.004c-0.296,-0 -0.54,-0.244 -0.54,-0.54c0,-0.021 0.002,-0.043 0.004,-0.064l0,-19.868c-0.002,-0.02 -0.004,-0.042 -0.004,-0.063c0,-0.297 0.244,-0.54 0.54,-0.54c0.021,-0 0.043,0.001 0.064,0.004l7.103,-0c5.265,-0 8.774,3.18 8.774,7.859Zm-5.13,-0.09c0.001,-1.589 -1.32,-3.329 -3.952,-3.329l-2.355,-0l-0,6.487l2.37,0c2.677,0 3.938,-1.635 3.938,-3.157Z" style="fill:#5d9bd4;fill-rule:nonzero;"/><path d="M86.25,15.488l0,3.239c0.002,0.021 0.004,0.042 0.004,0.064c-0,0.296 -0.244,0.54 -0.54,0.54c-0.019,-0 -0.038,-0.001 -0.056,-0.003l-9.15,-0l-0,5.55l7.77,-0c0.021,-0.003 0.042,-0.004 0.063,-0.004c0.296,-0 0.54,0.244 0.54,0.54c-0,0.018 -0.001,0.037 -0.003,0.056l-0,3.24c0.002,0.021 0.003,0.043 0.003,0.064c0,0.296 -0.243,0.54 -0.54,0.54c-0.021,-0 -0.042,-0.002 -0.063,-0.004l-7.74,-0l-0,6.06c0.002,0.021 0.003,0.043 0.003,0.064c0,0.296 -0.243,0.54 -0.54,0.54c-0.021,-0 -0.042,-0.002 -0.063,-0.004l-3.833,-0c-0.021,0.002 -0.043,0.004 -0.064,0.004c-0.296,-0 -0.54,-0.244 -0.54,-0.54c0,-0.021 0.002,-0.043 0.004,-0.064l0,-19.883c-0.002,-0.021 -0.004,-0.042 -0.004,-0.063c0,-0.297 0.244,-0.54 0.54,-0.54c0.021,-0 0.043,0.001 0.064,0.003l13.583,0c0.008,-0 0.017,-0 0.026,-0c0.295,-0 0.54,0.243 0.54,0.54c-0,0.02 -0.002,0.04 -0.004,0.06Z" style="fill:#5d9bd4;fill-rule:nonzero;"/><path d="M15.428,35.963c-0.024,0.002 -0.048,0.005 -0.072,0.005c-0.28,-0 -0.51,-0.231 -0.51,-0.51c-0,-0.022 0.001,-0.044 0.004,-0.066l0,-19.927c-0.002,-0.019 -0.003,-0.038 -0.003,-0.056c0,-0.285 0.233,-0.518 0.518,-0.518c0.021,0 0.042,0.002 0.063,0.004l3.682,-0c0.021,-0.002 0.042,-0.004 0.063,-0.004c0.284,0 0.518,0.233 0.518,0.518c-0,0.018 -0.001,0.037 -0.003,0.056l-0,19.927c0.003,0.022 0.004,0.044 0.004,0.066c0,0.279 -0.23,0.51 -0.51,0.51c-0.024,-0 -0.048,-0.003 -0.072,-0.006l-3.682,0m-0,1.17l3.682,0c0.026,0.002 0.051,0.002 0.077,0.002c0.913,0 1.665,-0.752 1.665,-1.665c-0,-0.026 -0,-0.051 -0.002,-0.077l0,-19.927c0.002,-0.026 0.002,-0.051 0.002,-0.077c-0,-0.913 -0.752,-1.665 -1.665,-1.665c-0.026,0 -0.051,0 -0.077,0.002l-3.682,-0c-0.026,-0.002 -0.051,-0.002 -0.077,-0.002c-0.913,0 -1.665,0.752 -1.665,1.665c0,0.026 0,0.052 0.002,0.077l-0,19.927c-0.002,0.026 -0.002,0.051 -0.002,0.077c0,0.913 0.752,1.665 1.665,1.665c0.026,0 0.051,0 0.077,-0.002Z" style="fill:#222c56;fill-rule:nonzero;"/><rect x="14.745" y="19.178" width="2.948" height="0.592" style="fill:#222c56;"/><rect x="14.745" y="21.023" width="1.695" height="0.638" style="fill:#222c56;"/><rect x="14.745" y="30.87" width="2.948" height="0.592" style="fill:#222c56;"/><rect x="14.745" y="24.788" width="2.948" height="0.593" style="fill:#222c56;"/><rect x="14.745" y="22.898" width="1.695" height="0.638" style="fill:#222c56;"/><rect x="14.745" y="26.872" width="1.695" height="0.638" style="fill:#222c56;"/><rect x="14.745" y="28.98" width="1.695" height="0.638" style="fill:#222c56;"/><path d="M37.695,60.705l0,-19.073c-0.003,-0.021 -0.004,-0.043 -0.004,-0.065c-0,-0.28 0.23,-0.51 0.51,-0.51c0.024,0 0.048,0.002 0.072,0.005l3.682,0c0.024,-0.003 0.048,-0.005 0.072,-0.005c0.28,0 0.51,0.23 0.51,0.51c0,0.022 -0.001,0.044 -0.004,0.065l-0,19.073c0.002,0.021 0.003,0.043 0.003,0.064c0,0.284 -0.233,0.517 -0.517,0.517c-0.021,0 -0.043,-0.001 -0.064,-0.004l-3.705,0c-0.013,0.001 -0.028,0.002 -0.041,0.002c-0.284,-0 -0.518,-0.233 -0.518,-0.518c0,-0.02 0.002,-0.041 0.004,-0.061Z" style="fill:#222c56;fill-rule:nonzero;"/><path d="M46.5,51.158c0,-5.783 4.253,-10.358 10.845,-10.358c2.219,-0.048 4.407,0.543 6.3,1.703c0.169,0.101 0.273,0.285 0.273,0.482c0,0.114 -0.035,0.226 -0.1,0.32l-1.568,2.82c-0.076,0.181 -0.253,0.299 -0.449,0.299c-0.11,-0 -0.215,-0.036 -0.301,-0.104c-1.21,-0.647 -2.564,-0.983 -3.937,-0.975c-3.653,0 -6.045,2.25 -6.045,5.813c-0,3.562 2.392,5.835 6.045,5.835c1.373,0.012 2.728,-0.324 3.937,-0.975c0.085,-0.054 0.183,-0.083 0.283,-0.083c0.196,0 0.377,0.11 0.467,0.285l1.553,2.82c0.076,0.094 0.118,0.212 0.118,0.332c0,0.2 -0.113,0.382 -0.291,0.471c-1.881,1.186 -4.078,1.776 -6.3,1.695c-6.593,-0 -10.83,-4.568 -10.83,-10.38Z" style="fill:#222c56;fill-rule:nonzero;"/><path d="M86.25,41.633l0,19.072c0.003,0.024 0.005,0.048 0.005,0.072c0,0.28 -0.23,0.51 -0.51,0.51c-0.021,0 -0.043,-0.001 -0.065,-0.004l-3.682,-0c-0.021,0.003 -0.043,0.003 -0.064,0.003c-0.284,0 -0.518,-0.233 -0.518,-0.517c0,-0.021 0.001,-0.043 0.004,-0.064l0,-7.365l-9.12,0l0,7.365c0.003,0.024 0.005,0.048 0.005,0.072c0,0.28 -0.23,0.51 -0.51,0.51c-0.021,0 -0.043,-0.001 -0.065,-0.004l-3.682,-0c-0.021,0.003 -0.043,0.003 -0.064,0.003c-0.284,0 -0.518,-0.233 -0.518,-0.517c0,-0.021 0.001,-0.043 0.004,-0.064l0,-19.072c-0.003,-0.022 -0.004,-0.044 -0.004,-0.066c-0,-0.279 0.23,-0.51 0.51,-0.51c0.024,0 0.048,0.003 0.072,0.006l3.682,-0c0.021,-0.003 0.043,-0.004 0.064,-0.004c0.28,-0 0.51,0.23 0.51,0.51c-0,0.021 -0.001,0.043 -0.004,0.064l0,7.432l9.15,0l0,-7.455c-0.003,-0.022 -0.004,-0.044 -0.004,-0.065c-0,-0.28 0.23,-0.51 0.51,-0.51c0.024,-0 0.048,0.002 0.072,0.005l3.682,-0c0.012,-0.001 0.025,-0.002 0.037,-0.002c0.28,0 0.51,0.231 0.51,0.51c-0,0.029 -0.002,0.057 -0.007,0.084Z" style="fill:#222c56;fill-rule:nonzero;"/><path d="M23.04,41.063l-5.332,-0.001l-0,4.005l-0.878,-1.11l0,-2.895l-1.44,0c-0.024,-0.003 -0.048,-0.005 -0.072,-0.005c-0.28,0 -0.51,0.23 -0.51,0.51c0,0.022 0.002,0.044 0.005,0.066l-0,19.072c-0.003,0.021 -0.004,0.043 -0.004,0.064c-0,0.284 0.233,0.517 0.517,0.517c0.021,0 0.043,-0.001 0.064,-0.004l7.65,0c6.383,0 10.643,-4.057 10.643,-10.125c-0,-6.067 -4.26,-10.095 -10.643,-10.095Zm-0.292,15.96l-3.105,0l-0,-11.707l3.105,0c3.825,0 6,2.362 6,5.903c-0,3.539 -2.175,5.804 -6,5.804Z" style="fill:#222c56;fill-rule:nonzero;"/><path d="M19.95,10.072l-5.362,0l-0,0.736l0.975,-0.001l-0,2.22l0.742,0l0,-2.22l1.928,0l-0,2.22l0.742,0l0,-2.22l0.975,0l0,-0.735Z" style="fill:#222c56;fill-rule:nonzero;"/><rect x="16.83" y="37.83" width="0.878" height="3.225" style="fill:#222c56;"/></svg>