<svg version="1" xmlns="http://www.w3.org/2000/svg" width="200" height="200" viewBox="0 0 150.000000 150.000000"><path d="M71.7 5.6c-.4.4-.7 7.4-.7 15.6V36H55v88.8l8-.1c4.4-.1 8 .1 8.1.5.1 1 .1 6.9 0 10.8-.1 2.7-.4 3-3.6 3-3 0-3.5.3-3.5 2.2 0 2.2.4 2.3 6.7 2.1 3.8-.1 8-.2 9.6-.2 2-.1 2.7-.6 2.7-2.1 0-1.6-.7-2-3.5-2H76v-7c0-4.9.4-7 1.3-7.1.6 0 4.6-.2 8.7-.2l7.5-.2.9-22.5c.5-12.4.5-32.3.1-44.3L93.8 36H76.1l-.3-15.2C75.5 7.9 75.3 5.5 74 5.2c-.9-.1-1.9 0-2.3.4zM89.6 49v8h-7.7c-6.1 0-7.8.3-8.3 1.6-1.1 2.8.4 3.4 9 3.4H91v35h-8.9c-8.4 0-9 .1-8.8 2 .1 1.7.9 2 6.2 2.1 11 .2 10-.8 10 9.4v9h-30V110c0-9.2.1-9.5 2.3-9.5 2.9 0 3-1.8.1-2.5-3.1-.7-3.5-2.7-.8-3.5l2.2-.7L61 92c-2.3-1.8-2-4 .5-4 .9 0 1.2-.6.9-1.5-.4-.8-1.3-1.5-2.1-1.5-1.9 0-1.2-3.5.7-3.6 3.5-.2 4.1-.5 3.5-1.4-.3-.6-1.5-1-2.5-1-3 0-3.5-2.1-.9-4.1l2.4-1.9-2.2-.6C60 72 59 71.2 59 70.5s1-2 2.3-2.8l2.2-1.6-2.3-.7c-2.9-.8-2.5-3.8.6-4.2 3-.5 2.9-3.2-.2-3.2-2.4 0-2.4-.2-2.5-8.5L59 41h30.6v8z"/><path d="M82.8 66.1c-2.4 1.4-2.3 5.6.2 6.9 1.6.8 2.4.6 4.1-1.1 1.8-1.8 1.9-2.3.6-4.2-1.7-2.6-2.7-2.9-4.9-1.6zm3.7 1.9c.4.6.1 1.7-.5 2.6-1 1.1-1.6 1.2-2.6.3-1.1-.9-1.1-1.5-.3-2.5 1.4-1.7 2.5-1.8 3.4-.4zM82.6 85.3c-2.2 1.6-1.8 5.6.7 7.1 1.5.9 2.2.7 3.8-1.3 1.7-2.1 1.8-2.7.6-4.4-1.8-2.7-2.9-3-5.1-1.4zm4.4 3.3c0 2-3 3-4 1.3-1.1-1.7.7-4 2.6-3.2.8.3 1.4 1.2 1.4 1.9z"/></svg>