<svg xmlns="http://www.w3.org/2000/svg" viewBox="0 0 198.45 186.95"><defs><style>.cls-1{fill:#5d9bd4;}.cls-2{fill:#222c56;}.cls-3{fill:#fff;}</style></defs><g id="Kompakt"><path class="cls-1" d="M166.7,133.31H31.75V31.75h135Zm-131-4h127V35.73h-127Z"/><path class="cls-1" d="M51.55,78.91V52.4a.72.72,0,0,1,.79-.8h5.12a.72.72,0,0,1,.8.8V78.91a.72.72,0,0,1-.8.8H52.34A.72.72,0,0,1,51.55,78.91Z"/><path class="cls-1" d="M95.08,78.91c0,.64-.31.8-.83.8H89.33a.72.72,0,0,1-.8-.8l0-13.68L82,76.43A1,1,0,0,1,81,77H78.18a1,1,0,0,1-1-.56L70.82,65.2l0,13.71a.72.72,0,0,1-.8.8H65c-.6,0-.79-.24-.79-.8L64.9,52.4c0-.48.28-.8.88-.8h2.68a1,1,0,0,1,1,.56L79.58,69.43,89.93,52.16a1,1,0,0,1,1-.56h2.64a.8.8,0,0,1,.87.84Z"/><path class="cls-1" d="M123.05,62.08c0,6-4.8,10-12,10.07l-3.23,0v6.72a.72.72,0,0,1-.8.8h-5.12a.72.72,0,0,1-.8-.8V52.4a.72.72,0,0,1,.8-.8h9.47C118.37,51.6,123.05,55.84,123.05,62.08ZM116.21,62c0-2.12-1.76-4.44-5.27-4.44h-3.16V66.2h3.16C114.53,66.2,116.21,64,116.21,62Z"/><path class="cls-1" d="M146.84,52.4v4.32a.72.72,0,0,1-.79.8h-12.2v7.4h10.36a.72.72,0,0,1,.8.79V70a.72.72,0,0,1-.8.8H133.85v8.08a.72.72,0,0,1-.8.8h-5.11a.72.72,0,0,1-.8-.8V52.4a.72.72,0,0,1,.8-.8h18.11A.72.72,0,0,1,146.84,52.4Z"/><path class="cls-2" d="M52.37,79.7a.68.68,0,0,1-.77-.76V52.37a.69.69,0,0,1,.77-.76h4.91a.69.69,0,0,1,.77.76V78.94a.68.68,0,0,1-.77.76H52.37m0,1.56h4.91a2.22,2.22,0,0,0,2.32-2.32V52.37a2.22,2.22,0,0,0-2.32-2.32H52.37a2.22,2.22,0,0,0-2.32,2.32V78.94a2.22,2.22,0,0,0,2.32,2.32Z"/><rect class="cls-2" x="51.46" y="57.32" width="3.93" height="0.79"/><rect class="cls-2" x="51.46" y="59.78" width="2.26" height="0.85"/><rect class="cls-2" x="51.46" y="72.91" width="3.93" height="0.79"/><rect class="cls-2" x="51.46" y="64.8" width="3.93" height="0.79"/><rect class="cls-2" x="51.46" y="62.28" width="2.26" height="0.85"/><rect class="cls-2" x="51.46" y="67.58" width="2.26" height="0.85"/><rect class="cls-2" x="51.46" y="70.39" width="2.26" height="0.85"/><path class="cls-2" d="M82.06,112.69V87.26a.68.68,0,0,1,.77-.76h4.91a.68.68,0,0,1,.77.76v25.43a.69.69,0,0,1-.77.77H82.83A.69.69,0,0,1,82.06,112.69Z"/><path class="cls-2" d="M93.78,100c0-7.71,5.67-13.81,14.46-13.81a15.45,15.45,0,0,1,8.4,2.27.75.75,0,0,1,.23,1.07l-2.07,3.76a.65.65,0,0,1-1,.26,11,11,0,0,0-5.25-1.3c-4.87,0-8.06,3-8.06,7.75s3.19,7.78,8.06,7.78a10.86,10.86,0,0,0,5.25-1.3.7.7,0,0,1,1,.27l2.07,3.76a.7.7,0,0,1-.23,1.07,14.73,14.73,0,0,1-8.4,2.26C99.45,113.8,93.78,107.71,93.78,100Z"/><path class="cls-2" d="M146.84,87.26v25.43a.68.68,0,0,1-.76.77h-4.91a.69.69,0,0,1-.77-.77v-9.82H128.2v9.82a.68.68,0,0,1-.76.77h-4.91a.69.69,0,0,1-.77-.77V87.26a.68.68,0,0,1,.77-.76h4.91a.68.68,0,0,1,.76.76V97.2h12.2V87.26a.68.68,0,0,1,.77-.76h4.91A.68.68,0,0,1,146.84,87.26Z"/><path class="cls-2" d="M62.52,86.5H55.41v5.34l-1.17-1.48V86.5H52.32a.68.68,0,0,0-.77.76v25.43a.69.69,0,0,0,.77.77h10.2c8.51,0,14.19-5.41,14.19-13.5S71,86.5,62.52,86.5Zm-.39,21.28H58V92.17h4.14c5.1,0,8,3.15,8,7.87S67.23,107.78,62.13,107.78Z"/><polygon class="cls-2" points="58.4 45.18 57.09 45.18 57.09 45.18 52.55 45.18 52.55 45.18 51.25 45.18 51.25 46.16 52.55 46.16 52.55 49.12 53.54 49.12 53.54 46.16 56.11 46.16 56.11 49.12 57.09 49.12 57.09 46.16 58.4 46.16 58.4 45.18"/><rect class="cls-2" x="54.24" y="82.19" width="1.17" height="4.3"/><rect class="cls-2" x="31.75" y="139.28" width="134.95" height="15.92"/><path class="cls-3" d="M35.73,149.89v-5.24c0-.09.05-.14.15-.14h.79a.13.13,0,0,1,.14.14v5.24a.13.13,0,0,1-.14.14h-.79C35.78,150,35.73,150,35.73,149.89Z"/><path class="cls-3" d="M44,148v1.86a.13.13,0,0,1-.14.14h-.74a.13.13,0,0,1-.15-.14v-1.71c0-.55-.28-.91-.72-.91a.8.8,0,0,0-.78.89v1.73a.13.13,0,0,1-.14.14H40.6a.13.13,0,0,1-.15-.14v-1.71c0-.55-.29-.91-.71-.91a.8.8,0,0,0-.79.87v1.75a.13.13,0,0,1-.14.14h-.74a.13.13,0,0,1-.15-.14v-3.33a.13.13,0,0,1,.15-.14h.45a.14.14,0,0,1,.15.14l0,.49a1.34,1.34,0,0,1,1.21-.7,1.54,1.54,0,0,1,1.29.63,1.37,1.37,0,0,1,1.18-.63A1.58,1.58,0,0,1,44,148Z"/><path class="cls-3" d="M48.81,148.22a1.77,1.77,0,0,1-1.73,1.88,1.47,1.47,0,0,1-1.11-.47v1.79a.13.13,0,0,1-.15.14h-.73c-.1,0-.15-.05-.15-.14v-4.86c0-.09.05-.14.15-.14h.58a.14.14,0,0,1,.15.14l0,.3a1.6,1.6,0,0,1,1.2-.51A1.79,1.79,0,0,1,48.81,148.22Zm-1,0a.91.91,0,0,0-.92-.94.88.88,0,0,0-.93.94.9.9,0,0,0,.93.95A.92.92,0,0,0,47.77,148.22Z"/><path class="cls-3" d="M49.9,149.89v-2.61h-.53a.14.14,0,0,1-.15-.15v-.57a.13.13,0,0,1,.15-.14h.53V146a1.5,1.5,0,0,1,1.62-1.63,1.68,1.68,0,0,1,.83.2.14.14,0,0,1,0,.2l-.26.52a.14.14,0,0,1-.19.07.82.82,0,0,0-.32-.06.68.68,0,0,0-.7.76v.37h1a.13.13,0,0,1,.14.14v.57a.13.13,0,0,1-.14.15h-1v2.61a.13.13,0,0,1-.14.14h-.74A.13.13,0,0,1,49.9,149.89Z"/><path class="cls-3" d="M56.24,146.56v3.33a.13.13,0,0,1-.15.14h-.62a.14.14,0,0,1-.16-.14l0-.35a1.49,1.49,0,0,1-1.2.56,1.88,1.88,0,0,1,0-3.75,1.64,1.64,0,0,1,1.13.42l0-.22a.13.13,0,0,1,.15-.13h.67A.13.13,0,0,1,56.24,146.56Zm-1,1.66a.88.88,0,0,0-.93-.94.95.95,0,0,0,0,1.89A.89.89,0,0,0,55.25,148.22Z"/><path class="cls-3" d="M60.8,146.56v3.33a.13.13,0,0,1-.15.14h-.54a.14.14,0,0,1-.15-.14l0-.33a1.32,1.32,0,0,1-1.11.54,1.6,1.6,0,0,1-1.67-1.69v-1.85a.13.13,0,0,1,.15-.14H58c.1,0,.15.05.15.14v1.65a.8.8,0,1,0,1.58,0v-1.68a.13.13,0,0,1,.14-.14h.74A.13.13,0,0,1,60.8,146.56Z"/><path class="cls-3" d="M62.14,149.89v-2.61H61.6a.14.14,0,0,1-.15-.15v-.57a.13.13,0,0,1,.15-.14h.54V146a1.49,1.49,0,0,1,1.61-1.63,1.68,1.68,0,0,1,.83.2.14.14,0,0,1,.06.2l-.26.52a.15.15,0,0,1-.2.07.77.77,0,0,0-.31-.06.67.67,0,0,0-.7.76v.37h.94a.13.13,0,0,1,.14.14v.57c0,.1,0,.15-.14.15h-.94v2.61A.13.13,0,0,1,63,150h-.74C62.19,150,62.14,150,62.14,149.89Z"/><path class="cls-3" d="M68.42,150h-1a.22.22,0,0,1-.19-.08l-1.31-1.41v1.35a.13.13,0,0,1-.15.14h-.73c-.1,0-.15-.05-.15-.14v-5.33a.13.13,0,0,1,.15-.14h.73a.14.14,0,0,1,.15.14v3.3l1.25-1.37a.21.21,0,0,1,.17-.07h.94c.13,0,.16.08.07.18l-1.47,1.53,1.61,1.72C68.58,149.94,68.54,150,68.42,150Z"/><path class="cls-3" d="M69.08,149.89v-5.33a.14.14,0,0,1,.15-.14H70a.13.13,0,0,1,.14.14v5.33A.13.13,0,0,1,70,150h-.74A.13.13,0,0,1,69.08,149.89Z"/><path class="cls-3" d="M74.78,146.56v3.33c0,.09,0,.14-.15.14H74a.15.15,0,0,1-.16-.14l0-.35a1.48,1.48,0,0,1-1.19.56,1.88,1.88,0,0,1,0-3.75,1.63,1.63,0,0,1,1.13.42l0-.22a.12.12,0,0,1,.14-.13h.67C74.73,146.42,74.78,146.47,74.78,146.56Zm-3.26-1.45a.58.58,0,0,1,.6-.6.6.6,0,0,1,.6.6.6.6,0,0,1-1.2,0Zm2.27,3.11a.88.88,0,0,0-.93-.94.95.95,0,0,0,0,1.89A.89.89,0,0,0,73.79,148.22Zm-.53-3.09a.58.58,0,0,1,.59-.6.6.6,0,0,1,.61.6.6.6,0,0,1-1.2,0Z"/><path class="cls-3" d="M78.15,146.51l-.06.72c0,.11-.07.14-.16.12l-.22,0a.85.85,0,0,0-.92.89v1.67a.13.13,0,0,1-.15.14h-.73c-.1,0-.15-.05-.15-.14v-3.33c0-.09,0-.14.15-.14h.56a.14.14,0,0,1,.15.14l0,.56a1.18,1.18,0,0,1,1.2-.77H78C78.11,146.36,78.15,146.42,78.15,146.51Z"/><path class="cls-3" d="M82.34,146.56v3.33c0,.09,0,.14-.15.14h-.53a.14.14,0,0,1-.15-.14l0-.33a1.3,1.3,0,0,1-1.1.54,1.6,1.6,0,0,1-1.67-1.69v-1.85a.13.13,0,0,1,.14-.14h.74a.13.13,0,0,1,.15.14v1.65a.8.8,0,0,0,.76.9.8.8,0,0,0,.81-.87v-1.68a.13.13,0,0,1,.14-.14h.74C82.29,146.42,82.34,146.47,82.34,146.56Z"/><path class="cls-3" d="M87,148v1.86a.13.13,0,0,1-.14.14h-.74c-.1,0-.15-.05-.15-.14v-1.71a.81.81,0,0,0-.79-.91.84.84,0,0,0-.85.87v1.75a.13.13,0,0,1-.14.14h-.74a.13.13,0,0,1-.14-.14v-3.33a.13.13,0,0,1,.14-.14h.45a.14.14,0,0,1,.15.14l0,.47a1.47,1.47,0,0,1,1.33-.68A1.53,1.53,0,0,1,87,148Z"/><path class="cls-3" d="M91.6,146.57v3.23a1.79,1.79,0,0,1-2,1.83,2.86,2.86,0,0,1-1.61-.4.13.13,0,0,1,0-.19l.3-.5c0-.08.11-.09.19,0a2.43,2.43,0,0,0,1.09.26c.61,0,1-.35,1-.82v-.28a1.54,1.54,0,0,1-1.09.45,1.88,1.88,0,0,1,0-3.75,1.61,1.61,0,0,1,1.23.53l0-.31a.13.13,0,0,1,.15-.14h.55A.13.13,0,0,1,91.6,146.57Zm-1,1.65a.88.88,0,0,0-.93-.94.95.95,0,0,0,0,1.89A.89.89,0,0,0,90.63,148.22Z"/><path class="cls-3" d="M94.23,145.14a.68.68,0,1,1,.67.66A.65.65,0,0,1,94.23,145.14Zm.17,4.75v-3.33a.13.13,0,0,1,.14-.14h.74c.1,0,.15.05.15.14v3.33c0,.09-.05.14-.15.14h-.74A.13.13,0,0,1,94.4,149.89Z"/><path class="cls-3" d="M100.1,148v1.86a.13.13,0,0,1-.14.14h-.74a.13.13,0,0,1-.15-.14v-1.71a.81.81,0,0,0-.79-.91.83.83,0,0,0-.84.87v1.75a.13.13,0,0,1-.15.14h-.73c-.1,0-.15-.05-.15-.14v-3.33c0-.09,0-.14.15-.14H97a.13.13,0,0,1,.15.14l0,.47a1.47,1.47,0,0,1,1.33-.68A1.53,1.53,0,0,1,100.1,148Z"/><path class="cls-3" d="M108.06,147.26a2.68,2.68,0,0,1-2.9,2.77h-2a.13.13,0,0,1-.15-.14v-5.24a.13.13,0,0,1,.15-.14h2A2.67,2.67,0,0,1,108.06,147.26Zm-1.1,0a1.7,1.7,0,0,0-1.85-1.81h-1v3.6h1A1.69,1.69,0,0,0,107,147.28Z"/><path class="cls-3" d="M112.34,148.36c0,.09,0,.15-.14.15h-2.51a1.06,1.06,0,0,0,1.07.73,1.32,1.32,0,0,0,.84-.28.13.13,0,0,1,.2,0l.28.49a.14.14,0,0,1,0,.2,2.19,2.19,0,0,1-1.39.41,1.89,1.89,0,0,1-2-1.88,1.82,1.82,0,0,1,1.88-1.87,1.76,1.76,0,0,1,1.8,1.88A.53.53,0,0,1,112.34,148.36Zm-2.65-.51h1.69v0a.77.77,0,0,0-.78-.66A.87.87,0,0,0,109.69,147.85Z"/><path class="cls-3" d="M116.7,146.56v3.33a.13.13,0,0,1-.15.14H116a.14.14,0,0,1-.15-.14l0-.33a1.32,1.32,0,0,1-1.11.54,1.59,1.59,0,0,1-1.66-1.69v-1.85a.13.13,0,0,1,.14-.14H114a.13.13,0,0,1,.14.14v1.65a.8.8,0,1,0,1.58,0v-1.68a.13.13,0,0,1,.14-.14h.74A.13.13,0,0,1,116.7,146.56Z"/><path class="cls-3" d="M118,148.69v-1.41h-.59c-.09,0-.14-.05-.14-.15v-.57a.13.13,0,0,1,.14-.14h.62v-1.1a.13.13,0,0,1,.14-.15h.71a.14.14,0,0,1,.15.15v1.1h1.19c.1,0,.15.05.15.14v.57a.13.13,0,0,1-.15.15h-1.19v1.31c0,.43.27.58.64.58a1.24,1.24,0,0,0,.46-.11.13.13,0,0,1,.2.05l.23.51c0,.09,0,.14-.06.21a2,2,0,0,1-1.07.27A1.29,1.29,0,0,1,118,148.69Z"/><path class="cls-3" d="M121.05,149.72a.13.13,0,0,1,0-.2l.28-.51a.13.13,0,0,1,.2,0,2.07,2.07,0,0,0,1.1.32c.3,0,.46-.1.46-.29s-.18-.27-.66-.38-1.29-.41-1.29-1.13.6-1.13,1.51-1.13a2.82,2.82,0,0,1,1.37.33.14.14,0,0,1,.06.2l-.28.5a.13.13,0,0,1-.19.06,2,2,0,0,0-1-.27c-.26,0-.42.09-.42.27s.19.24.73.37,1.21.36,1.21,1.12-.56,1.17-1.61,1.17A2.8,2.8,0,0,1,121.05,149.72Z"/><path class="cls-3" d="M124.69,148.22a1.89,1.89,0,0,1,2-1.87,2.11,2.11,0,0,1,1.22.32c.07,0,.09.12,0,.22l-.26.5a.15.15,0,0,1-.21.06,1.27,1.27,0,0,0-.66-.17.95.95,0,1,0,0,1.89,1.26,1.26,0,0,0,.68-.17c.09-.05.15,0,.19.05l.27.53a.12.12,0,0,1,0,.19,2.12,2.12,0,0,1-1.21.33A1.88,1.88,0,0,1,124.69,148.22Z"/><path class="cls-3" d="M132.4,148v1.86a.13.13,0,0,1-.15.14h-.73c-.1,0-.15-.05-.15-.14v-1.71a.82.82,0,1,0-1.64,0v1.75a.13.13,0,0,1-.14.14h-.74a.13.13,0,0,1-.15-.14v-5.33a.14.14,0,0,1,.15-.14h.73a.13.13,0,0,1,.15.14v2.18a1.4,1.4,0,0,1,1-.39A1.57,1.57,0,0,1,132.4,148Z"/><path class="cls-3" d="M133.33,149.89v-5.33a.14.14,0,0,1,.15-.14h.74a.14.14,0,0,1,.14.14v5.33a.13.13,0,0,1-.14.14h-.74A.13.13,0,0,1,133.33,149.89Z"/><path class="cls-3" d="M139,146.56v3.33a.13.13,0,0,1-.15.14h-.62a.14.14,0,0,1-.16-.14l0-.35a1.49,1.49,0,0,1-1.2.56,1.88,1.88,0,0,1,0-3.75,1.64,1.64,0,0,1,1.13.42l0-.22a.13.13,0,0,1,.15-.13h.67A.13.13,0,0,1,139,146.56Zm-1,1.66a.88.88,0,0,0-.93-.94.95.95,0,0,0,0,1.89A.89.89,0,0,0,138,148.22Z"/><path class="cls-3" d="M143.7,148v1.86a.13.13,0,0,1-.15.14h-.73c-.1,0-.15-.05-.15-.14v-1.71a.82.82,0,0,0-.8-.91.83.83,0,0,0-.84.87v1.75a.13.13,0,0,1-.14.14h-.74a.13.13,0,0,1-.15-.14v-3.33a.13.13,0,0,1,.15-.14h.45a.14.14,0,0,1,.15.14l0,.47a1.46,1.46,0,0,1,1.33-.68A1.54,1.54,0,0,1,143.7,148Z"/><path class="cls-3" d="M148.3,144.56v5.33c0,.09-.05.14-.15.14h-.55a.14.14,0,0,1-.15-.14l0-.33a1.64,1.64,0,0,1-1.24.54,1.79,1.79,0,0,1-1.76-1.88,1.75,1.75,0,0,1,1.73-1.87,1.49,1.49,0,0,1,1.12.47v-2.26a.13.13,0,0,1,.14-.14h.73A.13.13,0,0,1,148.3,144.56Zm-1,3.66a.89.89,0,0,0-.93-.94.95.95,0,0,0,0,1.89A.89.89,0,0,0,147.32,148.22Z"/><path class="cls-3" d="M154.58,148.36c0,.09-.06.15-.14.15h-2.51a1.06,1.06,0,0,0,1.07.73,1.32,1.32,0,0,0,.84-.28.13.13,0,0,1,.2,0l.27.49a.13.13,0,0,1,0,.2,2.19,2.19,0,0,1-1.39.41,1.89,1.89,0,0,1-2-1.88,1.83,1.83,0,0,1,1.89-1.87,1.76,1.76,0,0,1,1.8,1.88A.53.53,0,0,1,154.58,148.36Zm-2.65-.51h1.68v0a.77.77,0,0,0-.77-.66A.87.87,0,0,0,151.93,147.85Z"/><path class="cls-3" d="M155.24,149.46a.63.63,0,0,1,.64-.65.65.65,0,1,1,0,1.29A.63.63,0,0,1,155.24,149.46Z"/><path class="cls-3" d="M162.26,144.67l-2.18,5.25a.16.16,0,0,1-.17.11h-.44a.16.16,0,0,1-.17-.11l-2.19-5.25c0-.1,0-.16.11-.16h.91a.18.18,0,0,1,.17.11l1.07,2.81.36,1.12.34-1.12,1.05-2.81a.15.15,0,0,1,.16-.11h.87C162.26,144.51,162.3,144.57,162.26,144.67Z"/><path class="cls-3" d="M161.6,149.46a.65.65,0,1,1,.65.64A.64.64,0,0,1,161.6,149.46Z"/></g></svg>